<svg viewBox="0 0 880 430" xmlns="http://www.w3.org/2000/svg" font-family="Arial, Helvetica, sans-serif">
<title>Step 5: canonicalize</title>
<desc>A 4 bp deletion at the packed exon join is absorbed into the intron during translation (100M 4D 51M becomes 100M 18554N 51M), leaving the junction 1 bp off the splice motif. Canonicalize slides the intron 1 bp onto the canonical CT..AC motif (a minus-strand GT-AG), giving 101M 18554N 50M; the alignment start is unchanged and NM recomputes to 0.</desc>
<defs>
<marker id="arrN" markerWidth="8" markerHeight="8" refX="6" refY="3" orient="auto"><path d="M0,0 L6,3 L0,6 Z" fill="#9B9893"/></marker>
</defs>
<rect x="0" y="0" width="880" height="430" fill="#FFFFFF"/>

<!-- legend -->
<g transform="translate(160,0)">
<rect x="556" y="16" width="152" height="74" rx="4" fill="#FCFCFB" stroke="#E4E2DD"/>
<rect x="566" y="28" width="20" height="11" rx="2" fill="#E6F1FB" stroke="#4A90C4"/>
<text x="592" y="37" font-size="10" fill="#5C5953">exon base</text>
<rect x="566" y="44" width="20" height="11" rx="2" fill="#EFEFEC" stroke="#C7C5BF"/>
<text x="592" y="53" font-size="10" fill="#5C5953">intron base</text>
<rect x="566" y="60" width="20" height="11" rx="2" fill="none" stroke="#1F8A4C" stroke-width="1.6"/>
<text x="592" y="69" font-size="10" fill="#5C5953">splice motif</text>
</g>

<!-- translate summary -->
<text x="60" y="34" font-size="11.5" fill="#6B6862"><tspan font-family="Courier New, monospace" fill="#333333">100M 4D 51M</tspan>  &#8212;translate&#8594;  <tspan font-family="Courier New, monospace" fill="#333333">100M 18554N 51M</tspan>   (the boundary 4D is absorbed into the intron)</text>

<!-- intron schematic -->
<rect x="60" y="50" width="220" height="14" rx="2" fill="#E6F1FB" stroke="#4A90C4"/>
<line x1="280" y1="57" x2="440" y2="57" stroke="#B8B5AE" stroke-width="1.6"/>
<rect x="440" y="50" width="180" height="14" rx="2" fill="#E6F1FB" stroke="#4A90C4"/>
<text x="170" y="60" font-size="9.5" text-anchor="middle" fill="#0C447C">exon 1</text>
<text x="530" y="60" font-size="9.5" text-anchor="middle" fill="#0C447C">exon 2</text>
<text x="360" y="47" font-size="9" text-anchor="middle" fill="#9B9893">18,554N</text>
<text x="290" y="60" font-size="9" fill="#9156AE">donor</text>
<text x="405" y="60" font-size="9" text-anchor="end" fill="#9156AE">acceptor</text>

<text x="60" y="92" font-size="13" font-weight="600" fill="#0C447C">slide the junction 1 bp to land both boundaries on the splice motif</text>
<text x="60" y="110" font-size="10" fill="#6B6862">smallest shift that strictly improves the motif tier (NONE &lt; SEMI_CANONICAL &lt; CANONICAL &lt; ANNOTATED), every moved base still matching</text>

<text x="92" y="140" font-size="11" text-anchor="middle" fill="#6B6862">donor (exon 1 | intron)</text>
<text x="470" y="140" font-size="11" text-anchor="middle" fill="#6B6862">acceptor (intron | exon 2)</text>
<text x="24" y="170" font-size="11" fill="#9B9893">before</text>
<text x="24" y="230" font-size="11" font-weight="600" fill="#0C447C">after</text>

<!-- BEFORE donor -->
<rect x="60"  y="152" width="26" height="26" fill="#E6F1FB" stroke="#4A90C4"/>
<rect x="86"  y="152" width="26" height="26" fill="#E6F1FB" stroke="#4A90C4"/>
<rect x="112" y="152" width="26" height="26" fill="#EFEFEC" stroke="#C7C5BF"/>
<rect x="138" y="152" width="26" height="26" fill="#EFEFEC" stroke="#C7C5BF"/>
<rect x="164" y="152" width="26" height="26" fill="#EFEFEC" stroke="#C7C5BF"/>
<rect x="190" y="152" width="26" height="26" fill="#EFEFEC" stroke="#C7C5BF"/>
<line x1="112" y1="148" x2="112" y2="182" stroke="#0C447C" stroke-width="2.5"/>
<text x="73"  y="170" font-size="14" text-anchor="middle" fill="#333333" font-family="Courier New, monospace">T</text>
<text x="99"  y="170" font-size="14" text-anchor="middle" fill="#333333" font-family="Courier New, monospace">C</text>
<text x="125" y="170" font-size="14" text-anchor="middle" fill="#9B9893" font-family="Courier New, monospace">C</text>
<text x="151" y="170" font-size="14" text-anchor="middle" fill="#9B9893" font-family="Courier New, monospace">C</text>
<text x="177" y="170" font-size="14" text-anchor="middle" fill="#9B9893" font-family="Courier New, monospace">T</text>
<text x="203" y="170" font-size="14" text-anchor="middle" fill="#9B9893" font-family="Courier New, monospace">G</text>

<!-- BEFORE acceptor -->
<rect x="380" y="152" width="26" height="26" fill="#EFEFEC" stroke="#C7C5BF"/>
<rect x="406" y="152" width="26" height="26" fill="#EFEFEC" stroke="#C7C5BF"/>
<rect x="432" y="152" width="26" height="26" fill="#E6F1FB" stroke="#4A90C4"/>
<rect x="458" y="152" width="26" height="26" fill="#E6F1FB" stroke="#4A90C4"/>
<rect x="484" y="152" width="26" height="26" fill="#E6F1FB" stroke="#4A90C4"/>
<rect x="510" y="152" width="26" height="26" fill="#E6F1FB" stroke="#4A90C4"/>
<line x1="432" y1="148" x2="432" y2="182" stroke="#0C447C" stroke-width="2.5"/>
<text x="393" y="170" font-size="14" text-anchor="middle" fill="#9B9893" font-family="Courier New, monospace">T</text>
<text x="419" y="170" font-size="14" text-anchor="middle" fill="#9B9893" font-family="Courier New, monospace">A</text>
<text x="445" y="170" font-size="14" text-anchor="middle" fill="#333333" font-family="Courier New, monospace">C</text>
<text x="471" y="170" font-size="14" text-anchor="middle" fill="#333333" font-family="Courier New, monospace">T</text>
<text x="497" y="170" font-size="14" text-anchor="middle" fill="#333333" font-family="Courier New, monospace">C</text>
<text x="523" y="170" font-size="14" text-anchor="middle" fill="#333333" font-family="Courier New, monospace">G</text>
<text x="556" y="170" font-size="11" fill="#9B9893">CC..TA</text>

<!-- AFTER donor: boundary slid 1 right -->
<rect x="60"  y="212" width="26" height="26" fill="#E6F1FB" stroke="#4A90C4"/>
<rect x="86"  y="212" width="26" height="26" fill="#E6F1FB" stroke="#4A90C4"/>
<rect x="112" y="212" width="26" height="26" fill="#E6F1FB" stroke="#4A90C4"/>
<rect x="138" y="212" width="26" height="26" fill="#EFEFEC" stroke="#C7C5BF"/>
<rect x="164" y="212" width="26" height="26" fill="#EFEFEC" stroke="#C7C5BF"/>
<rect x="190" y="212" width="26" height="26" fill="#EFEFEC" stroke="#C7C5BF"/>
<line x1="138" y1="208" x2="138" y2="242" stroke="#0C447C" stroke-width="2.5"/>
<rect x="138" y="212" width="52" height="26" fill="none" stroke="#1F8A4C" stroke-width="1.8"/>
<text x="73"  y="230" font-size="14" text-anchor="middle" fill="#333333" font-family="Courier New, monospace">T</text>
<text x="99"  y="230" font-size="14" text-anchor="middle" fill="#333333" font-family="Courier New, monospace">C</text>
<text x="125" y="230" font-size="14" text-anchor="middle" fill="#333333" font-family="Courier New, monospace">C</text>
<text x="151" y="230" font-size="14" text-anchor="middle" fill="#1F8A4C" font-family="Courier New, monospace">C</text>
<text x="177" y="230" font-size="14" text-anchor="middle" fill="#1F8A4C" font-family="Courier New, monospace">T</text>
<text x="203" y="230" font-size="14" text-anchor="middle" fill="#9B9893" font-family="Courier New, monospace">G</text>

<!-- AFTER acceptor -->
<rect x="380" y="212" width="26" height="26" fill="#EFEFEC" stroke="#C7C5BF"/>
<rect x="406" y="212" width="26" height="26" fill="#EFEFEC" stroke="#C7C5BF"/>
<rect x="432" y="212" width="26" height="26" fill="#EFEFEC" stroke="#C7C5BF"/>
<rect x="458" y="212" width="26" height="26" fill="#E6F1FB" stroke="#4A90C4"/>
<rect x="484" y="212" width="26" height="26" fill="#E6F1FB" stroke="#4A90C4"/>
<rect x="510" y="212" width="26" height="26" fill="#E6F1FB" stroke="#4A90C4"/>
<line x1="458" y1="208" x2="458" y2="242" stroke="#0C447C" stroke-width="2.5"/>
<rect x="406" y="212" width="52" height="26" fill="none" stroke="#1F8A4C" stroke-width="1.8"/>
<text x="393" y="230" font-size="14" text-anchor="middle" fill="#333333" font-family="Courier New, monospace">T</text>
<text x="419" y="230" font-size="14" text-anchor="middle" fill="#1F8A4C" font-family="Courier New, monospace">A</text>
<text x="445" y="230" font-size="14" text-anchor="middle" fill="#1F8A4C" font-family="Courier New, monospace">C</text>
<text x="471" y="230" font-size="14" text-anchor="middle" fill="#333333" font-family="Courier New, monospace">T</text>
<text x="497" y="230" font-size="14" text-anchor="middle" fill="#333333" font-family="Courier New, monospace">C</text>
<text x="523" y="230" font-size="14" text-anchor="middle" fill="#333333" font-family="Courier New, monospace">G</text>
<text x="556" y="230" font-size="11" font-weight="600" fill="#1F8A4C">CT..AC</text>

<!-- CIGAR before/after -->
<rect x="60" y="266" width="602" height="56" rx="4" fill="#FAFAF8" stroke="#E0DED9"/>
<text x="80"  y="290" font-size="11" fill="#6B6862">before</text>
<text x="160" y="290" font-size="13" fill="#333333" font-family="Courier New, monospace">100M 18554N 51M</text>
<text x="420" y="290" font-size="10.5" fill="#9B9893">junction 1 bp off the motif</text>
<text x="80"  y="312" font-size="11" font-weight="600" fill="#0C447C">after</text>
<text x="160" y="312" font-size="13" fill="#166534" font-family="Courier New, monospace">101M 18554N 50M</text>
<text x="420" y="312" font-size="10.5" fill="#1F8A4C">on CT..AC &#183; start unchanged &#183; NM &#8594; 0</text>

<text x="60" y="348" font-size="10" fill="#6B6862">CIGAR-only: the intron position moves, the alignment start never does (MAPQ here 0 &#8594; 60 via the discriminator)</text>

<text x="360" y="384" font-size="15" font-weight="600" text-anchor="middle" fill="#111111">Step 5 &#183; canonicalize the junction onto a splice motif</text>
</svg>
