<svg viewBox="0 0 880 400" xmlns="http://www.w3.org/2000/svg" font-family="Arial, Helvetica, sans-serif">
<title>Core splice (tx-only), MAPQ 0 to 60</title>
<desc>A read aligns to the transcriptome as 151M (three packed copies), all tied at MAPQ 0. Translation lifts it across a 7,762 bp intron to a single spliced genomic locus chr22:45,923,222 as 114M 7762N 37M; the redundant copies collapse to one locus and MAPQ is rescued from 0 to 60 (NH 1).</desc>
<defs>
<marker id="arrC" markerWidth="9" markerHeight="9" refX="6" refY="3" orient="auto"><path d="M0,0 L6,3 L0,6 Z" fill="#9B9893"/></marker>
</defs>
<rect x="0" y="0" width="880" height="400" fill="#FFFFFF"/>

<!-- legend -->
<g transform="translate(160,0)">
<rect x="556" y="18" width="150" height="74" rx="4" fill="#FCFCFB" stroke="#E4E2DD"/>
<rect x="566" y="30" width="20" height="11" rx="2" fill="#2F7DC6"/>
<text x="592" y="39" font-size="10" fill="#5C5953">matched (M)</text>
<rect x="566" y="46" width="20" height="11" rx="2" fill="#E6F1FB" stroke="#4A90C4"/>
<text x="592" y="55" font-size="10" fill="#5C5953">exon (genome)</text>
<line x1="566" y1="73" x2="586" y2="73" stroke="#2F7DC6" stroke-width="2"/>
<text x="592" y="76" font-size="10" fill="#5C5953">intron (N)</text>
</g>

<!-- BEFORE: 3 tied isoform contigs -->
<text x="60" y="36" font-size="14" font-weight="600" fill="#0C447C">before &#183; read aligns to the transcriptome (3 packed copies, all tied)</text>
<rect x="60" y="48" width="438" height="13" rx="2" fill="#2F7DC6"/>
<text x="279" y="58" font-size="9.5" text-anchor="middle" fill="#FFFFFF">151M  &#183; chr22_tx:8,725,640</text>
<rect x="60" y="64" width="438" height="13" rx="2" fill="#A9CDEA"/>
<text x="279" y="74" font-size="9" text-anchor="middle" fill="#1C4F7C">151M  &#183; copy 2 (XA, NM 0)</text>
<rect x="60" y="80" width="438" height="13" rx="2" fill="#A9CDEA"/>
<text x="279" y="90" font-size="9" text-anchor="middle" fill="#1C4F7C">151M  &#183; copy 3 (XA, NM 0)</text>
<rect x="516" y="46" width="62" height="20" rx="10" fill="#ECECEA"/>
<text x="547" y="60" font-size="11" text-anchor="middle" fill="#5C5953">MAPQ 0</text>
<text x="60" y="108" font-size="10" fill="#6B6862">no single best hit (all copies score equally) so bwa emits MAPQ 0</text>

<!-- arrow -->
<line x1="120" y1="120" x2="120" y2="152" stroke="#9B9893" stroke-width="1.4" marker-end="url(#arrC)"/>
<text x="134" y="140" font-size="11" fill="#6B6862">translate across the intron &#183; copies collapse to one locus</text>

<!-- REFERENCE GENOME -->
<text x="60" y="180" font-size="11" font-weight="600" fill="#6B6862">reference genome &#183; chr22</text>
<rect x="60" y="188" width="331" height="14" rx="2" fill="#E6F1FB" stroke="#4A90C4"/>
<rect x="470" y="188" width="107" height="14" rx="2" fill="#E6F1FB" stroke="#4A90C4"/>
<line x1="391" y1="195" x2="470" y2="195" stroke="#B8B5AE" stroke-width="1.6"/>
<text x="225" y="198" font-size="9.5" text-anchor="middle" fill="#0C447C">exon</text>
<text x="523" y="198" font-size="9.5" text-anchor="middle" fill="#0C447C">exon</text>
<line x1="60" y1="202" x2="60" y2="211" stroke="#6B6862" stroke-width="1.3"/>
<text x="60" y="224" font-size="10" text-anchor="middle" fill="#6B6862">45,923,222</text>
<text x="430" y="185" font-size="9.5" text-anchor="middle" fill="#9B9893">7,762 bp (not to scale)</text>

<!-- AFTER: single spliced placement -->
<text x="60" y="258" font-size="14" font-weight="600" fill="#0C447C">after &#183; one spliced genomic placement</text>
<rect x="60" y="272" width="331" height="20" rx="3" fill="#2F7DC6"/>
<text x="225" y="286" font-size="11" text-anchor="middle" fill="#FFFFFF">114M</text>
<line x1="391" y1="282" x2="408" y2="282" stroke="#2F7DC6" stroke-width="2"/>
<line x1="452" y1="282" x2="470" y2="282" stroke="#2F7DC6" stroke-width="2"/>
<text x="430" y="286" font-size="11" text-anchor="middle" fill="#0C447C">7762N</text>
<rect x="470" y="272" width="107" height="20" rx="3" fill="#2F7DC6"/>
<text x="523" y="286" font-size="11" text-anchor="middle" fill="#FFFFFF">37M</text>
<rect x="600" y="270" width="62" height="22" rx="11" fill="#E3F2E8" stroke="#1F8A4C"/>
<text x="631" y="285" font-size="11" text-anchor="middle" fill="#166534">MAPQ 60</text>
<text x="60" y="310" font-size="9.5" fill="#9B9893">MAPQ bumped to 60 = liftback asserting a rescue (single best genomic locus)</text>

</svg>
