<svg viewBox="0 0 880 430" xmlns="http://www.w3.org/2000/svg" font-family="Arial, Helvetica, sans-serif">
<title>JUNCTION: tx spans the intron, ref softclips at the boundary</title>
<desc>At one locus, chr1:1,049,917, the bwa primary is a transcript alignment that spans a 195 bp intron (121M 195N 30M); the ref alt aligns 115M then softclips 36 bases because it cannot read across the intron. The 30 clipped bases match the next exon, not the intron, so tars keeps the spliced tx placement, drops the ref alt, and rescues MAPQ 0 to 60.</desc>
<rect x="0" y="0" width="880" height="430" fill="#FFFFFF"/>

<!-- legend -->
<g transform="translate(160,0)">
<rect x="556" y="18" width="150" height="90" rx="4" fill="#FCFCFB" stroke="#E4E2DD"/>
<rect x="566" y="30" width="20" height="11" rx="2" fill="#2F7DC6"/>
<text x="592" y="39" font-size="10" fill="#5C5953">matched (M)</text>
<rect x="566" y="46" width="20" height="11" rx="2" fill="#EFB94B"/>
<text x="592" y="55" font-size="10" fill="#5C5953">softclip (S)</text>
<rect x="566" y="62" width="20" height="11" rx="2" fill="#E6F1FB" stroke="#4A90C4"/>
<text x="592" y="71" font-size="10" fill="#5C5953">exon (genome)</text>
<line x1="566" y1="89" x2="586" y2="89" stroke="#2F7DC6" stroke-width="2"/>
<text x="592" y="92" font-size="10" fill="#5C5953">intron (N)</text>
</g>

<!-- BEFORE -->
<text x="60" y="36" font-size="14" font-weight="600" fill="#0C447C">before &#183; two placements at one locus, chr1:1,049,917</text>

<!-- tx primary -->
<text x="60" y="58" font-size="10.5" fill="#6B6862">bwa primary (tx): spans the 195 bp intron onto the next exon</text>
<rect x="60" y="64" width="242" height="20" rx="3" fill="#2F7DC6"/>
<text x="181" y="78" font-size="11" text-anchor="middle" fill="#FFFFFF">121M</text>
<line x1="302" y1="74" x2="323" y2="74" stroke="#2F7DC6" stroke-width="2"/>
<line x1="359" y1="74" x2="380" y2="74" stroke="#2F7DC6" stroke-width="2"/>
<text x="341" y="78" font-size="10.5" text-anchor="middle" fill="#0C447C">195N</text>
<rect x="380" y="64" width="60" height="20" rx="3" fill="#2F7DC6"/>
<text x="410" y="78" font-size="10.5" text-anchor="middle" fill="#FFFFFF">30M</text>
<rect x="560" y="62" width="62" height="20" rx="10" fill="#ECECEA"/>
<text x="591" y="76" font-size="11" text-anchor="middle" fill="#5C5953">MAPQ 0</text>

<!-- ref alt -->
<text x="60" y="108" font-size="10.5" fill="#6B6862">ref alt (XA): aligns 115M then softclips - cannot cross the intron</text>
<rect x="60" y="114" width="242" height="20" rx="3" fill="#2F7DC6"/>
<text x="181" y="128" font-size="11" text-anchor="middle" fill="#FFFFFF">115M</text>
<rect x="302" y="114" width="78" height="20" rx="3" fill="#EFB94B"/>
<text x="341" y="128" font-size="10.5" text-anchor="middle" fill="#6B4E04">36S</text>

<!-- REFERENCE GENOME -->
<text x="60" y="166" font-size="11" font-weight="600" fill="#6B6862">reference genome &#183; chr1</text>
<rect x="60" y="174" width="242" height="14" rx="2" fill="#E6F1FB" stroke="#4A90C4"/>
<line x1="302" y1="181" x2="380" y2="181" stroke="#B8B5AE" stroke-width="1.6"/>
<rect x="380" y="174" width="60" height="14" rx="2" fill="#E6F1FB" stroke="#4A90C4"/>
<text x="181" y="184" font-size="9.5" text-anchor="middle" fill="#0C447C">exon</text>
<text x="410" y="184" font-size="9.5" text-anchor="middle" fill="#0C447C">next exon</text>
<line x1="60" y1="188" x2="60" y2="197" stroke="#6B6862" stroke-width="1.3"/>
<text x="60" y="210" font-size="10" text-anchor="middle" fill="#6B6862">1,049,917</text>
<text x="341" y="171" font-size="9.5" text-anchor="middle" fill="#9B9893">195 bp (not to scale)</text>
<line x1="302" y1="58" x2="302" y2="200" stroke="#C0392B" stroke-width="1.4" stroke-dasharray="3,2"/>
<text x="302" y="213" font-size="9.5" text-anchor="middle" fill="#C0392B">exon end &#183; ref clips, tx splices</text>

<!-- base evidence -->
<rect x="60" y="234" width="562" height="58" rx="4" fill="#FAFAF8" stroke="#E0DED9"/>
<text x="74" y="252" font-size="10" fill="#6B6862">the 30 clipped bases match the next exon, not the intron (the 195 bp intron opens GT):</text>
<text x="80"  y="272" font-size="12.5" fill="#6B6862" font-family="Courier New, monospace">read[122..151]</text>
<text x="300" y="272" font-size="12.5" fill="#1F8A4C" font-family="Courier New, monospace">CCTCGGGGCAGGACGGCTCTGGGCCCTTCG</text>
<text x="80"  y="288" font-size="12.5" fill="#6B6862" font-family="Courier New, monospace">chr1:1,050,233</text>
<text x="300" y="288" font-size="12.5" fill="#333333" font-family="Courier New, monospace">CCTCGGGGCAGGACGGCTCTGGGCCCTTCC</text>
<text x="595" y="288" font-size="11" fill="#1F8A4C" font-family="Courier New, monospace">29/30</text>

<!-- AFTER -->
<text x="60" y="318" font-size="14" font-weight="600" fill="#0C447C">after &#183; tx kept, ref alt dropped</text>
<rect x="60" y="332" width="242" height="20" rx="3" fill="#2F7DC6"/>
<text x="181" y="346" font-size="11" text-anchor="middle" fill="#FFFFFF">121M</text>
<line x1="302" y1="342" x2="323" y2="342" stroke="#2F7DC6" stroke-width="2"/>
<line x1="359" y1="342" x2="380" y2="342" stroke="#2F7DC6" stroke-width="2"/>
<text x="341" y="346" font-size="10.5" text-anchor="middle" fill="#0C447C">195N</text>
<rect x="380" y="332" width="60" height="20" rx="3" fill="#2F7DC6"/>
<text x="410" y="346" font-size="10.5" text-anchor="middle" fill="#FFFFFF">30M</text>
<rect x="560" y="330" width="62" height="22" rx="11" fill="#E3F2E8" stroke="#1F8A4C"/>
<text x="591" y="345" font-size="11" text-anchor="middle" fill="#166534">MAPQ 60</text>
<text x="60" y="378" font-size="10.5" fill="#6B6862">tx explains the whole read across a real junction; no XA written on a drop (NH 1)</text>

<text x="360" y="408" font-size="15" font-weight="600" text-anchor="middle" fill="#111111">tx wins &#183; the read crosses a junction the ref can only softclip</text>
</svg>
