<svg viewBox="0 0 880 380" xmlns="http://www.w3.org/2000/svg" font-family="Arial, Helvetica, sans-serif">
<title>MULTIMAPPER - best-score locus kept, rest in XA</title>
<desc>The read maps to several loci carrying both ref and tx alignments, with no clean splice signal to favour tx. One locus (chr11) is the single best score, so the read resolves there and the lower-scoring alts stay in the XA tag. When one locus is clearly best, MAPQ rescues to 60 (NH 1); a genuine multi-best-locus read instead stays MAPQ 0.</desc>
<rect x="0" y="0" width="880" height="380" fill="#FFFFFF"/>

<!-- legend -->
<g transform="translate(160,0)">
<rect x="556" y="18" width="158" height="74" rx="4" fill="#FCFCFB" stroke="#E4E2DD"/>
<rect x="566" y="30" width="20" height="11" rx="2" fill="#2F7DC6"/>
<text x="592" y="39" font-size="10" fill="#5C5953">best score (kept)</text>
<rect x="566" y="46" width="20" height="11" rx="2" fill="#A9CDEA"/>
<text x="592" y="55" font-size="10" fill="#5C5953">lower-score alt (XA)</text>
<rect x="566" y="62" width="20" height="11" rx="2" fill="#EFB94B"/>
<text x="592" y="71" font-size="10" fill="#5C5953">softclip (S)</text>
</g>

<!-- BEFORE -->
<text x="60" y="40" font-size="14" font-weight="600" fill="#0C447C">before &#183; candidate loci (bwa primary + XA), both ref and tx, no splice signal</text>

<!-- chr11 best -->
<text x="60" y="71" font-size="10.5" fill="#0C447C" font-family="Courier New, monospace">chr11:67226439</text>
<rect x="200" y="58" width="302" height="18" rx="3" fill="#2F7DC6" stroke="#1F8A4C" stroke-width="2"/>
<text x="351" y="71" font-size="10" text-anchor="middle" fill="#FFFFFF">151M</text>
<text x="512" y="71" font-size="10" fill="#166534">NM:2  &#9664; single best</text>

<!-- chr14 -->
<text x="60" y="99" font-size="10.5" fill="#6B6862" font-family="Courier New, monospace">chr14:97933211</text>
<rect x="200" y="86" width="302" height="18" rx="3" fill="#A9CDEA"/>
<text x="351" y="99" font-size="10" text-anchor="middle" fill="#1C4F7C">151M</text>
<text x="512" y="99" font-size="10" fill="#9B9893">NM:6</text>

<!-- chr4 -->
<text x="60" y="127" font-size="10.5" fill="#6B6862" font-family="Courier New, monospace">chr4:2522738</text>
<rect x="200" y="114" width="302" height="18" rx="3" fill="#A9CDEA"/>
<text x="351" y="127" font-size="10" text-anchor="middle" fill="#1C4F7C">134M1D17M</text>
<text x="512" y="127" font-size="10" fill="#9B9893">NM:7</text>

<!-- chr6 -->
<text x="60" y="155" font-size="10.5" fill="#6B6862" font-family="Courier New, monospace">chr6:167947330</text>
<rect x="200" y="142" width="276" height="18" rx="3" fill="#A9CDEA"/>
<text x="338" y="155" font-size="10" text-anchor="middle" fill="#1C4F7C">138M</text>
<rect x="476" y="142" width="26" height="18" rx="3" fill="#EFB94B"/>
<text x="489" y="155" font-size="8" text-anchor="middle" fill="#6B4E04">13S</text>
<text x="512" y="155" font-size="10" fill="#9B9893">NM:4</text>

<!-- chr17 -->
<text x="60" y="183" font-size="10.5" fill="#6B6862" font-family="Courier New, monospace">chr17:17198158</text>
<rect x="200" y="170" width="276" height="18" rx="3" fill="#A9CDEA"/>
<text x="338" y="183" font-size="10" text-anchor="middle" fill="#1C4F7C">138M</text>
<rect x="476" y="170" width="26" height="18" rx="3" fill="#EFB94B"/>
<text x="489" y="183" font-size="8" text-anchor="middle" fill="#6B4E04">13S</text>
<text x="512" y="183" font-size="10" fill="#9B9893">NM:5</text>

<!-- AFTER -->
<text x="60" y="232" font-size="14" font-weight="600" fill="#0C447C">after &#183; best locus resolved, lower-score alts kept in XA</text>
<text x="60" y="263" font-size="10.5" fill="#0C447C" font-family="Courier New, monospace">chr11:67226439</text>
<rect x="200" y="250" width="302" height="20" rx="3" fill="#2F7DC6"/>
<text x="351" y="264" font-size="10.5" text-anchor="middle" fill="#FFFFFF">151M</text>
<rect x="560" y="250" width="62" height="20" rx="10" fill="#E3F2E8" stroke="#1F8A4C"/>
<text x="591" y="264" font-size="11" text-anchor="middle" fill="#166534">MAPQ 60</text>
<text x="60" y="292" font-size="10.5" fill="#6B6862">single best score, so it resolves to chr11 (NH:1, MAPQ rescued 0 &#8594; 60); the rest ride along in XA. A genuine</text>
<text x="60" y="308" font-size="10.5" fill="#6B6862">multi-best-locus read instead keeps MAPQ 0 / NH &gt; 1.</text>

<text x="360" y="350" font-size="15" font-weight="600" text-anchor="middle" fill="#111111">MULTIMAPPER &#183; best-score locus kept, rest in XA</text>
</svg>
