<svg viewBox="0 0 880 450" xmlns="http://www.w3.org/2000/svg" font-family="Arial, Helvetica, sans-serif">
<title>REF_READS_THROUGH: ref wins over a fabricated tx gap</title>
<desc>At one locus, chr8:126,557,042, the tx alignment opens a 54 bp gap to reach an 8 bp far anchor (143M 54N 8M); the ref alt reads through contiguously as 151M with zero mismatches. The read's last 8 bases (GCGGCGGC) match the genome both at the contiguous position and at the downstream exon after the gap, so nothing breaks the tie. The contiguous no-gap read is more parsimonious, so tars keeps ref and drops the tx alt.</desc>
<rect x="0" y="0" width="880" height="450" fill="#FFFFFF"/>

<!-- legend -->
<g transform="translate(160,0)">
<rect x="556" y="16" width="152" height="90" rx="4" fill="#FCFCFB" stroke="#E4E2DD"/>
<rect x="566" y="28" width="20" height="11" rx="2" fill="#2F7DC6"/>
<text x="592" y="37" font-size="10" fill="#5C5953">matched (M)</text>
<rect x="566" y="44" width="20" height="11" rx="2" fill="#E6F1FB" stroke="#4A90C4"/>
<text x="592" y="53" font-size="10" fill="#5C5953">exon (genome)</text>
<line x1="566" y1="71" x2="586" y2="71" stroke="#2F7DC6" stroke-width="2"/>
<text x="592" y="74" font-size="10" fill="#5C5953">gap (N)</text>
<rect x="566" y="84" width="20" height="11" rx="2" fill="none" stroke="#1F8A4C"/>
<text x="592" y="93" font-size="10" fill="#5C5953">8 bp anchor</text>
</g>

<!-- BEFORE -->
<text x="60" y="36" font-size="14" font-weight="600" fill="#0C447C">before &#183; two placements at one locus, chr8:126,557,042</text>

<text x="60" y="58" font-size="10.5" fill="#6B6862">bwa primary (tx): an 8 bp far anchor across a fabricated 54 bp gap</text>
<rect x="60" y="64" width="429" height="20" rx="3" fill="#2F7DC6"/>
<text x="274" y="78" font-size="11" text-anchor="middle" fill="#FFFFFF">143M</text>
<line x1="489" y1="74" x2="494" y2="74" stroke="#2F7DC6" stroke-width="2"/>
<line x1="520" y1="74" x2="525" y2="74" stroke="#2F7DC6" stroke-width="2"/>
<text x="507" y="78" font-size="10" text-anchor="middle" fill="#0C447C">54N</text>
<rect x="525" y="64" width="24" height="20" rx="3" fill="#2F7DC6" stroke="#1F8A4C" stroke-width="1.5"/>
<text x="537" y="78" font-size="9" text-anchor="middle" fill="#FFFFFF">8M</text>
<rect x="600" y="62" width="62" height="20" rx="10" fill="#ECECEA"/>
<text x="631" y="76" font-size="11" text-anchor="middle" fill="#5C5953">MAPQ 7</text>

<text x="60" y="108" font-size="10.5" fill="#6B6862">ref alt (XA): reads through contiguously, no gap, zero mismatches</text>
<rect x="60" y="114" width="453" height="20" rx="3" fill="#2F7DC6"/>
<text x="286" y="128" font-size="11" text-anchor="middle" fill="#FFFFFF">151M</text>
<rect x="489" y="114" width="24" height="20" rx="3" fill="#2F7DC6" stroke="#1F8A4C" stroke-width="1.5"/>
<rect x="600" y="112" width="62" height="20" rx="10" fill="#ECECEA"/>
<text x="631" y="126" font-size="11" text-anchor="middle" fill="#5C5953">MAPQ 60</text>

<!-- REFERENCE GENOME -->
<text x="60" y="162" font-size="11" font-weight="600" fill="#6B6862">reference genome &#183; chr8</text>
<rect x="60" y="170" width="453" height="14" rx="2" fill="#E6F1FB" stroke="#4A90C4"/>
<rect x="489" y="170" width="24" height="14" fill="none" stroke="#1F8A4C" stroke-width="1.5"/>
<line x1="513" y1="177" x2="537" y2="177" stroke="#B8B5AE" stroke-width="1.6"/>
<rect x="537" y="170" width="24" height="14" rx="2" fill="#EAF6EE" stroke="#1F8A4C" stroke-dasharray="3,2"/>
<text x="270" y="180" font-size="9.5" text-anchor="middle" fill="#0C447C">exon &#183; reads through contiguously</text>
<line x1="60" y1="184" x2="60" y2="193" stroke="#6B6862" stroke-width="1.3"/>
<text x="60" y="206" font-size="10" text-anchor="middle" fill="#6B6862">126,557,042</text>
<text x="501" y="206" font-size="9" text-anchor="middle" fill="#1F8A4C">…185</text>
<text x="549" y="206" font-size="9" text-anchor="middle" fill="#1F8A4C">…239</text>
<text x="549" y="166" font-size="9" text-anchor="middle" fill="#1F8A4C">downstream exon</text>

<!-- base evidence -->
<rect x="60" y="222" width="602" height="74" rx="4" fill="#FAFAF8" stroke="#E0DED9"/>
<text x="74" y="240" font-size="10" fill="#6B6862">the read's last 8 bases match the genome in both places - nothing distinguishes them:</text>
<text x="80"  y="260" font-size="12.5" fill="#6B6862" font-family="Courier New, monospace">read[144..151]</text>
<text x="320" y="260" font-size="12.5" fill="#333333" font-family="Courier New, monospace">GCGGCGGC</text>
<text x="80"  y="277" font-size="12.5" fill="#6B6862" font-family="Courier New, monospace">chr8:126,557,185  (contiguous)</text>
<text x="320" y="277" font-size="12.5" fill="#1F8A4C" font-family="Courier New, monospace">GCGGCGGC</text>
<text x="440" y="277" font-size="11" fill="#1F8A4C" font-family="Courier New, monospace">match</text>
<text x="80"  y="294" font-size="12.5" fill="#6B6862" font-family="Courier New, monospace">chr8:126,557,239  (after 54 bp gap)</text>
<text x="320" y="294" font-size="12.5" fill="#1F8A4C" font-family="Courier New, monospace">GCGGCGGC</text>
<text x="440" y="294" font-size="11" fill="#1F8A4C" font-family="Courier New, monospace">match</text>

<!-- AFTER -->
<text x="60" y="322" font-size="14" font-weight="600" fill="#0C447C">after &#183; ref kept, tx alt dropped</text>
<rect x="60" y="336" width="453" height="20" rx="3" fill="#2F7DC6"/>
<text x="286" y="350" font-size="11" text-anchor="middle" fill="#FFFFFF">151M</text>
<rect x="600" y="334" width="62" height="22" rx="11" fill="#E3F2E8" stroke="#1F8A4C"/>
<text x="631" y="349" font-size="11" text-anchor="middle" fill="#166534">MAPQ 60</text>
<text x="60" y="382" font-size="10.5" fill="#6B6862">both explain the read with zero mismatches; the no-gap read is more parsimonious, so ref wins (NH 1)</text>
<text x="60" y="398" font-size="9.5" fill="#9B9893">shape-based rule (RefFullMatch beats TxHasN); it does not compare mismatch counts</text>

<text x="360" y="428" font-size="15" font-weight="600" text-anchor="middle" fill="#111111">ref wins &#183; the genome reads through a gap the tx fabricated</text>
</svg>
