<svg viewBox="0 0 880 296" xmlns="http://www.w3.org/2000/svg" font-family="Arial, Helvetica, sans-serif">
<title>Step 4: merge supplementary record to primary</title>
<desc>bwa emits one spliced read as two records: a short-anchor supplementary (20M anchors in exon 1, rest clipped) and a primary (head clipped, 131M anchors in exon 2), complementary across a 166 bp intron. tars merges the supplementary into the primary as one spliced primary 20M 166N 131M and drops the supplementary; the merged MAPQ is capped at 55 to flag a constructed alignment. Needs at least 3 bp anchor each side and a snapped junction.</desc>
<defs>
<marker id="arrR" markerWidth="9" markerHeight="9" refX="6" refY="3" orient="auto"><path d="M0,0 L6,3 L0,6 Z" fill="#9B9893"/></marker>
</defs>
<rect x="0" y="0" width="880" height="296" fill="#FFFFFF"/>

<!-- legend -->
<g transform="translate(160,0)">
<rect x="556" y="14" width="152" height="74" rx="4" fill="#FCFCFB" stroke="#E4E2DD"/>
<rect x="566" y="26" width="20" height="11" rx="2" fill="#2F7DC6"/>
<text x="592" y="35" font-size="10" fill="#5C5953">matched (M)</text>
<rect x="566" y="42" width="20" height="11" rx="2" fill="#EFB94B"/>
<text x="592" y="51" font-size="10" fill="#5C5953">softclip (S)</text>
<line x1="566" y1="68" x2="586" y2="68" stroke="#2F7DC6" stroke-width="2"/>
<text x="592" y="71" font-size="10" fill="#5C5953">intron (N)</text>
</g>

<!-- BEFORE -->
<text x="60" y="30" font-size="14" font-weight="600" fill="#0C447C">before  &#183;  two records for one read</text>

<!-- reference genome strip -->
<text x="60" y="52" font-size="10" fill="#6B6862">reference genome  &#183;  chr22</text>
<rect x="60" y="58" width="54" height="13" rx="2" fill="#E6F1FB" stroke="#4A90C4"/>
<line x1="114" y1="64" x2="234" y2="64" stroke="#B8B5AE" stroke-width="1.6"/>
<rect x="234" y="58" width="354" height="13" rx="2" fill="#E6F1FB" stroke="#4A90C4"/>
<text x="87" y="68" font-size="9" text-anchor="middle" fill="#0C447C">exon 1</text>
<text x="411" y="68" font-size="9" text-anchor="middle" fill="#0C447C">exon 2</text>
<text x="174" y="82" font-size="9" text-anchor="middle" fill="#9B9893">166 bp intron</text>

<!-- supplementary record: 20M aligned on exon 1, 131S softclipped at its inner end -->
<text x="60" y="104" font-size="10" fill="#6B6862">supplementary  &#183;  20M anchors in exon 1, the rest is clipped</text>
<rect x="60" y="108" width="54" height="18" rx="3" fill="#2F7DC6"/>
<text x="87" y="121" font-size="10.5" text-anchor="middle" fill="#FFFFFF">20M</text>
<rect x="114" y="108" width="70" height="18" rx="3" fill="#EFB94B"/>
<text x="134" y="121" font-size="9" text-anchor="middle" fill="#6B4E04">131S</text>

<!-- primary record: 131M aligned on exon 2, 20S softclipped at its inner end -->
<text x="60" y="148" font-size="10" fill="#6B6862">primary  &#183;  head clipped, 131M anchors in exon 2</text>
<rect x="194" y="152" width="40" height="18" rx="3" fill="#EFB94B"/>
<text x="214" y="165" font-size="9" text-anchor="middle" fill="#6B4E04">20S</text>
<rect x="234" y="152" width="354" height="18" rx="3" fill="#2F7DC6"/>
<text x="411" y="165" font-size="10.5" text-anchor="middle" fill="#FFFFFF">131M</text>

<!-- condition -->
<text x="60" y="196" font-size="11" fill="#6B6862">anchors are complementary; <tspan fill="#1F8A4C">merge when the junction snaps to an annotated junction or motif (&#8805; 3 bp each side)</tspan></text>

<!-- arrow -->
<line x1="100" y1="206" x2="100" y2="232" stroke="#9B9893" stroke-width="1.4" marker-end="url(#arrR)"/>

<!-- AFTER -->
<text x="60" y="250" font-size="14" font-weight="600" fill="#0C447C">after  &#183;  one spliced primary, supplementary dropped</text>
<rect x="60" y="262" width="54" height="18" rx="3" fill="#2F7DC6"/>
<text x="87" y="275" font-size="10.5" text-anchor="middle" fill="#FFFFFF">20M</text>
<line x1="114" y1="271" x2="154" y2="271" stroke="#2F7DC6" stroke-width="2"/>
<line x1="194" y1="271" x2="234" y2="271" stroke="#2F7DC6" stroke-width="2"/>
<text x="174" y="275" font-size="10" text-anchor="middle" fill="#0C447C">166N</text>
<rect x="234" y="262" width="354" height="18" rx="3" fill="#2F7DC6"/>
<text x="411" y="275" font-size="10.5" text-anchor="middle" fill="#FFFFFF">131M</text>
<rect x="636" y="261" width="64" height="20" rx="10" fill="#FBEFD0" stroke="#D89B14"/>
<text x="668" y="275" font-size="10.5" text-anchor="middle" fill="#7A4F01">MAPQ 55</text>
<text x="668" y="292" font-size="8.5" text-anchor="middle" fill="#7A4F01">capped</text>
</svg>
