<svg viewBox="0 0 880 420" xmlns="http://www.w3.org/2000/svg" font-family="Arial, Helvetica, sans-serif">
<title>Step 4: rescue via supplementary</title>
<desc>bwa emits the read as a primary (32S 113M 6S in exon 2) plus a short-anchor supplementary (35M 116S in exon 1), linked by the SA tag. The two cover complementary halves of the read across a 166 bp intron. tars merges them into one spliced primary 35M 166N 110M 6S and drops the supplementary; the merged MAPQ is capped at 55 to flag a constructed alignment.</desc>
<defs>
<marker id="arrR" markerWidth="8" markerHeight="8" refX="5" refY="3" orient="auto"><path d="M0,0 L6,3 L0,6 Z" fill="#9B9893"/></marker>
</defs>
<rect x="0" y="0" width="880" height="420" fill="#FFFFFF"/>

<!-- legend -->
<g transform="translate(160,0)">
<rect x="556" y="16" width="152" height="74" rx="4" fill="#FCFCFB" stroke="#E4E2DD"/>
<rect x="566" y="28" width="20" height="11" rx="2" fill="#2F7DC6"/>
<text x="592" y="37" font-size="10" fill="#5C5953">matched (M)</text>
<rect x="566" y="44" width="20" height="11" rx="2" fill="#EFB94B"/>
<text x="592" y="53" font-size="10" fill="#5C5953">softclip (S)</text>
<line x1="566" y1="71" x2="586" y2="71" stroke="#2F7DC6" stroke-width="2"/>
<text x="592" y="74" font-size="10" fill="#5C5953">intron (N)</text>
</g>

<text x="60" y="36" font-size="14" font-weight="600" fill="#0C447C">before &#183; two records covering complementary halves of the read</text>

<!-- REFERENCE GENOME -->
<text x="60" y="60" font-size="10.5" font-weight="600" fill="#6B6862">reference genome &#183; chr22</text>
<rect x="60" y="68" width="91" height="14" rx="2" fill="#E6F1FB" stroke="#4A90C4"/>
<line x1="151" y1="75" x2="230" y2="75" stroke="#B8B5AE" stroke-width="1.6"/>
<rect x="230" y="68" width="302" height="14" rx="2" fill="#E6F1FB" stroke="#4A90C4"/>
<text x="105" y="78" font-size="9.5" text-anchor="middle" fill="#0C447C">exon 1</text>
<text x="381" y="78" font-size="9.5" text-anchor="middle" fill="#0C447C">exon 2</text>
<line x1="60" y1="82" x2="60" y2="90" stroke="#6B6862" stroke-width="1.2"/>
<text x="60" y="102" font-size="9.5" text-anchor="middle" fill="#6B6862">45,885,775</text>
<text x="190" y="65" font-size="9" text-anchor="middle" fill="#9B9893">166 bp</text>
<line x1="230" y1="82" x2="230" y2="90" stroke="#6B6862" stroke-width="1.2"/>
<text x="236" y="102" font-size="9.5" text-anchor="start" fill="#6B6862">45,885,973</text>

<!-- supp record -->
<text x="60" y="130" font-size="10.5" fill="#6B6862">supplementary (35M 116S): anchors in exon 1, clips the rest</text>
<rect x="60" y="136" width="91" height="20" rx="3" fill="#2F7DC6"/>
<text x="105" y="150" font-size="10.5" text-anchor="middle" fill="#FFFFFF">35M</text>
<rect x="151" y="136" width="80" height="20" rx="3" fill="#EFB94B"/>
<text x="191" y="150" font-size="10" text-anchor="middle" fill="#6B4E04">116S</text>
<rect x="560" y="134" width="62" height="20" rx="10" fill="#ECECEA"/>
<text x="591" y="148" font-size="11" text-anchor="middle" fill="#5C5953">MAPQ 60</text>

<!-- primary record -->
<text x="60" y="180" font-size="10.5" fill="#6B6862">primary (32S 113M 6S): anchors in exon 2, clips the head</text>
<rect x="196" y="186" width="34" height="20" rx="3" fill="#EFB94B"/>
<text x="213" y="200" font-size="10" text-anchor="middle" fill="#6B4E04">32S</text>
<rect x="230" y="186" width="294" height="20" rx="3" fill="#2F7DC6"/>
<text x="377" y="200" font-size="10.5" text-anchor="middle" fill="#FFFFFF">113M</text>
<rect x="524" y="186" width="16" height="20" rx="3" fill="#EFB94B"/>
<text x="532" y="200" font-size="8" text-anchor="middle" fill="#6B4E04">6S</text>
<rect x="560" y="184" width="62" height="20" rx="10" fill="#ECECEA"/>
<text x="591" y="198" font-size="11" text-anchor="middle" fill="#5C5953">MAPQ 60</text>

<!-- SA link -->
<path d="M105,158 C120,228 150,228 213,208" fill="none" stroke="#9B9893" stroke-width="1.3" stroke-dasharray="3,3" marker-end="url(#arrR)"/>
<text x="150" y="232" font-size="10" fill="#9B9893">SA tag links the two records</text>

<!-- merge arrow -->
<line x1="100" y1="246" x2="100" y2="276" stroke="#9B9893" stroke-width="1.4" marker-end="url(#arrR)"/>
<text x="114" y="265" font-size="11" fill="#6B6862">merge across the 166 bp intron &#183; drop the supplementary</text>

<!-- AFTER -->
<text x="60" y="300" font-size="14" font-weight="600" fill="#0C447C">after &#183; one spliced primary</text>
<rect x="60" y="314" width="91" height="20" rx="3" fill="#2F7DC6"/>
<text x="105" y="328" font-size="10.5" text-anchor="middle" fill="#FFFFFF">35M</text>
<line x1="151" y1="324" x2="170" y2="324" stroke="#2F7DC6" stroke-width="2"/>
<line x1="210" y1="324" x2="230" y2="324" stroke="#2F7DC6" stroke-width="2"/>
<text x="190" y="328" font-size="10" text-anchor="middle" fill="#0C447C">166N</text>
<rect x="230" y="314" width="286" height="20" rx="3" fill="#2F7DC6"/>
<text x="373" y="328" font-size="10.5" text-anchor="middle" fill="#FFFFFF">110M</text>
<rect x="516" y="314" width="16" height="20" rx="3" fill="#EFB94B"/>
<text x="524" y="328" font-size="8" text-anchor="middle" fill="#6B4E04">6S</text>
<rect x="560" y="312" width="62" height="22" rx="11" fill="#FBEFD0" stroke="#D89B14"/>
<text x="591" y="326" font-size="11" text-anchor="middle" fill="#7A4F01">MAPQ 55</text>
<text x="591" y="348" font-size="9" text-anchor="middle" fill="#7A4F01">capped (constructed)</text>
<text x="60" y="364" font-size="10.5" fill="#6B6862">overlap trimmed (113M &#8594; 110M); merge needs &#8805; 3 bp anchor each side and a snapped junction (NH 1)</text>

<text x="360" y="396" font-size="15" font-weight="600" text-anchor="middle" fill="#111111">Step 4 &#183; rescue a primary + supplementary into one spliced read</text>
</svg>
