<svg viewBox="0 0 880 470" xmlns="http://www.w3.org/2000/svg" font-family="Arial, Helvetica, sans-serif">
<title>Swap (JUNCTION_OVER_CONTIGUOUS): spliced placement beats a contiguous one</title>
<desc>bwa picks a contiguous 151M placement on chr2:128,518,864 as primary; a transcript alignment on chr9:86,266,119 spans a real 5,815 bp junction (73M 5815N 78M) but bwa demoted it to XA. tars swaps the primary to the spliced chr9 placement, keeps the displaced chr2 placement in XA, drops the lower-scoring chr5 ref alt, and rescues MAPQ 0 to 60.</desc>
<defs>
<marker id="arrS" markerWidth="9" markerHeight="9" refX="6" refY="3" orient="auto"><path d="M0,0 L6,3 L0,6 Z" fill="#B07CC6"/></marker>
</defs>
<rect x="0" y="0" width="880" height="470" fill="#FFFFFF"/>

<!-- legend -->
<g transform="translate(160,0)">
<rect x="556" y="16" width="152" height="74" rx="4" fill="#FCFCFB" stroke="#E4E2DD"/>
<rect x="566" y="28" width="20" height="11" rx="2" fill="#2F7DC6"/>
<text x="592" y="37" font-size="10" fill="#5C5953">matched (M)</text>
<rect x="566" y="44" width="20" height="11" rx="2" fill="#E6F1FB" stroke="#4A90C4"/>
<text x="592" y="53" font-size="10" fill="#5C5953">exon (genome)</text>
<line x1="566" y1="71" x2="586" y2="71" stroke="#2F7DC6" stroke-width="2"/>
<text x="592" y="74" font-size="10" fill="#5C5953">intron (N)</text>
</g>

<text x="60" y="36" font-size="14" font-weight="600" fill="#0C447C">before &#183; bwa's primary is the contiguous chr2 placement</text>

<!-- chr2 locus: contiguous -->
<text x="60" y="58" font-size="10.5" fill="#6B6862">chr2:128,518,864 &#8211; bwa primary: contiguous 151M, no junction (a coincidental match at another locus)</text>
<text x="60" y="78" font-size="9.5" fill="#6B6862">reference genome &#183; chr2</text>
<rect x="60" y="84" width="453" height="14" rx="2" fill="#E6F1FB" stroke="#4A90C4"/>
<text x="286" y="94" font-size="9.5" text-anchor="middle" fill="#0C447C">single exon &#183; no intron here</text>
<rect x="60" y="102" width="453" height="20" rx="3" fill="#2F7DC6"/>
<text x="286" y="116" font-size="11" text-anchor="middle" fill="#FFFFFF">151M</text>
<rect x="560" y="100" width="62" height="20" rx="10" fill="#ECECEA"/>
<text x="591" y="114" font-size="11" text-anchor="middle" fill="#5C5953">MAPQ 0</text>

<!-- chr9 locus: spliced (demoted to XA) -->
<text x="60" y="156" font-size="10.5" fill="#6B6862">chr9:86,266,119 &#8211; tx alignment: spans a real 5,815 bp junction (bwa demoted it to XA)</text>
<text x="60" y="176" font-size="9.5" fill="#6B6862">reference genome &#183; chr9</text>
<rect x="60" y="182" width="190" height="14" rx="2" fill="#E6F1FB" stroke="#4A90C4"/>
<line x1="250" y1="189" x2="330" y2="189" stroke="#B8B5AE" stroke-width="1.6"/>
<rect x="330" y="182" width="203" height="14" rx="2" fill="#E6F1FB" stroke="#4A90C4"/>
<text x="155" y="192" font-size="9.5" text-anchor="middle" fill="#0C447C">exon</text>
<text x="431" y="192" font-size="9.5" text-anchor="middle" fill="#0C447C">next exon</text>
<text x="290" y="179" font-size="9" text-anchor="middle" fill="#9B9893">5,815 bp (not to scale)</text>
<rect x="60" y="200" width="190" height="20" rx="3" fill="#2F7DC6"/>
<text x="155" y="214" font-size="11" text-anchor="middle" fill="#FFFFFF">73M</text>
<line x1="250" y1="210" x2="268" y2="210" stroke="#2F7DC6" stroke-width="2"/>
<line x1="312" y1="210" x2="330" y2="210" stroke="#2F7DC6" stroke-width="2"/>
<text x="290" y="214" font-size="10" text-anchor="middle" fill="#0C447C">5815N</text>
<rect x="330" y="200" width="203" height="20" rx="3" fill="#2F7DC6"/>
<text x="431" y="214" font-size="11" text-anchor="middle" fill="#FFFFFF">78M</text>

<!-- swap arrow -->
<path d="M610,116 C672,150 672,300 320,318" fill="none" stroke="#B07CC6" stroke-width="1.6" stroke-dasharray="4,3" marker-end="url(#arrS)"/>
<text x="624" y="250" font-size="11" text-anchor="middle" fill="#9156AE" transform="rotate(90 624 250)">discriminator swaps primary &#8594; spliced placement</text>

<!-- AFTER -->
<text x="60" y="300" font-size="14" font-weight="600" fill="#0C447C">after &#183; primary swapped to the spliced chr9 placement</text>
<rect x="60" y="318" width="190" height="20" rx="3" fill="#2F7DC6"/>
<text x="155" y="332" font-size="11" text-anchor="middle" fill="#FFFFFF">73M</text>
<line x1="250" y1="328" x2="268" y2="328" stroke="#2F7DC6" stroke-width="2"/>
<line x1="312" y1="328" x2="330" y2="328" stroke="#2F7DC6" stroke-width="2"/>
<text x="290" y="332" font-size="10" text-anchor="middle" fill="#0C447C">5815N</text>
<rect x="330" y="318" width="203" height="20" rx="3" fill="#2F7DC6"/>
<text x="431" y="332" font-size="11" text-anchor="middle" fill="#FFFFFF">78M</text>
<rect x="560" y="316" width="62" height="22" rx="11" fill="#E3F2E8" stroke="#1F8A4C"/>
<text x="591" y="331" font-size="11" text-anchor="middle" fill="#166534">MAPQ 60</text>

<rect x="60" y="356" width="350" height="22" rx="4" fill="#FAFAF8" stroke="#E0DED9"/>
<text x="72" y="371" font-size="11" fill="#5C5953" font-family="Courier New, monospace">XA: chr2,+128518864,151M,0</text>
<text x="424" y="371" font-size="10" fill="#6B6862">displaced chr2 placement kept in XA (chr5 alt dropped)</text>
<text x="60" y="400" font-size="10.5" fill="#6B6862">a junction across a real intron is stronger evidence than a contiguous match at an unrelated locus (NH 1)</text>

<text x="360" y="440" font-size="15" font-weight="600" text-anchor="middle" fill="#111111">swap &#183; a spliced placement beats a contiguous one</text>
</svg>
