<svg viewBox="0 0 880 298" xmlns="http://www.w3.org/2000/svg" font-family="Arial, Helvetica, sans-serif">
<title>Step 1: re-check short junctions</title>
<desc>A translated read has a 5 bp matched anchor across a 2,000 bp junction. 5 bp is below the 8 bp trust floor (MIN_JUNCTION_ANCHOR), so the junction is re-checked against the reference genome. The genome reads straight through with no gap, so the junction is dropped and the 5 bases become M: 146M 2000N 5M becomes 151M. Had the 5 bases only matched across the intron, the junction would be kept.</desc>
<defs>
<marker id="arrK" markerWidth="9" markerHeight="9" refX="6" refY="3" orient="auto"><path d="M0,0 L6,3 L0,6 Z" fill="#9B9893"/></marker>
</defs>
<rect x="0" y="0" width="880" height="298" fill="#FFFFFF"/>

<!-- legend -->
<g transform="translate(160,0)">
<rect x="556" y="18" width="162" height="74" rx="4" fill="#FCFCFB" stroke="#E4E2DD"/>
<rect x="566" y="30" width="20" height="11" rx="2" fill="#2F7DC6"/>
<text x="592" y="39" font-size="10" fill="#5C5953">matched (M)</text>
<rect x="566" y="46" width="20" height="11" rx="2" fill="#FBE3E0" stroke="#C0392B"/>
<text x="592" y="55" font-size="10" fill="#5C5953">anchor below 8 bp</text>
<line x1="566" y1="71" x2="586" y2="71" stroke="#2F7DC6" stroke-width="2" stroke-dasharray="4,3"/>
<text x="592" y="74" font-size="10" fill="#5C5953">junction (re-checked)</text>
</g>

<!-- BEFORE -->
<text x="60" y="34" font-size="14" font-weight="600" fill="#0C447C">before  &#183;  translated read, 5 bp anchor across a 2,000 bp junction</text>
<rect x="60" y="46" width="438" height="20" rx="3" fill="#2F7DC6"/>
<text x="279" y="60" font-size="11" text-anchor="middle" fill="#FFFFFF">146M</text>
<line x1="498" y1="56" x2="558" y2="56" stroke="#2F7DC6" stroke-width="2" stroke-dasharray="4,3"/>
<text x="528" y="42" font-size="10" text-anchor="middle" fill="#0C447C">2000N</text>
<rect x="558" y="46" width="16" height="20" rx="3" fill="#FBE3E0" stroke="#C0392B"/>
<text x="566" y="60" font-size="8" text-anchor="middle" fill="#C0392B">5M</text>
<text x="60" y="84" font-size="10.5" fill="#C0392B">the 5 bp anchor is below the 8 bp floor (MIN_JUNCTION_ANCHOR), so the junction is re-checked</text>

<!-- REFERENCE GENOME -->
<text x="60" y="112" font-size="11" font-weight="600" fill="#6B6862">reference genome  &#183;  chr22</text>
<rect x="60" y="120" width="454" height="14" rx="2" fill="#E6F1FB" stroke="#4A90C4"/>
<text x="287" y="130" font-size="9.5" text-anchor="middle" fill="#0C447C">one continuous exon, no gap</text>

<!-- decision -->
<text x="60" y="162" font-size="11" fill="#6B6862">re-check the short anchor against the genome: <tspan fill="#1F8A4C">reads straight through = drop the junction</tspan></text>

<!-- arrow -->
<line x1="100" y1="176" x2="100" y2="202" stroke="#9B9893" stroke-width="1.4" marker-end="url(#arrK)"/>

<!-- AFTER -->
<text x="60" y="228" font-size="14" font-weight="600" fill="#0C447C">after  &#183;  read's CIGAR updated to 151M</text>
<rect x="60" y="240" width="454" height="20" rx="3" fill="#2F7DC6"/>
<text x="287" y="254" font-size="11" text-anchor="middle" fill="#FFFFFF">151M</text>
<text x="60" y="280" font-size="9.5" fill="#9B9893">CIGAR only; MAPQ is set later</text>
</svg>
