<svg viewBox="0 0 880 390" xmlns="http://www.w3.org/2000/svg" font-family="Arial, Helvetica, sans-serif">
<title>Step 1: terminal micro-junction collapse</title>
<desc>Translation strands a tiny terminal anchor (5 bp) across a 2,000 bp junction. The contiguous genome explains the tail at least as well, so the fabricated anchor and the N are discarded and the CIGAR collapses to a plain 151M. A real short junction, where the anchor scores strictly higher on the far exon, is kept.</desc>
<defs>
<marker id="arrK" markerWidth="9" markerHeight="9" refX="6" refY="3" orient="auto"><path d="M0,0 L6,3 L0,6 Z" fill="#9B9893"/></marker>
</defs>
<rect x="0" y="0" width="880" height="390" fill="#FFFFFF"/>

<!-- legend -->
<g transform="translate(160,0)">
<rect x="556" y="18" width="152" height="74" rx="4" fill="#FCFCFB" stroke="#E4E2DD"/>
<rect x="566" y="30" width="20" height="11" rx="2" fill="#2F7DC6"/>
<text x="592" y="39" font-size="10" fill="#5C5953">matched (M)</text>
<rect x="566" y="46" width="20" height="11" rx="2" fill="#FBE3E0" stroke="#C0392B"/>
<text x="592" y="55" font-size="10" fill="#5C5953">fabricated anchor</text>
<line x1="566" y1="73" x2="586" y2="73" stroke="#2F7DC6" stroke-width="2"/>
<text x="592" y="76" font-size="10" fill="#5C5953">N (questioned)</text>
</g>

<!-- BEFORE: translated cigar -->
<text x="60" y="36" font-size="14" font-weight="600" fill="#0C447C">before &#183; translated CIGAR (a 5 bp anchor across a 2,000 bp "junction")</text>
<rect x="60" y="50" width="438" height="20" rx="3" fill="#2F7DC6"/>
<text x="279" y="64" font-size="11" text-anchor="middle" fill="#FFFFFF">146M</text>
<line x1="498" y1="60" x2="502" y2="60" stroke="#2F7DC6" stroke-width="2" stroke-dasharray="4,3"/>
<line x1="554" y1="60" x2="558" y2="60" stroke="#2F7DC6" stroke-width="2" stroke-dasharray="4,3"/>
<text x="528" y="64" font-size="10" text-anchor="middle" fill="#9156AE">2000N ?</text>
<rect x="558" y="50" width="16" height="20" rx="3" fill="#FBE3E0" stroke="#C0392B"/>
<text x="566" y="64" font-size="8" text-anchor="middle" fill="#C0392B">5M</text>
<text x="566" y="86" font-size="9.5" text-anchor="middle" fill="#C0392B">fabricated 5 bp anchor</text>

<!-- REFERENCE GENOME -->
<text x="60" y="124" font-size="11" font-weight="600" fill="#6B6862">reference genome &#183; chr22 (contiguous &#8211; the genome reads straight through)</text>
<rect x="60" y="132" width="438" height="14" rx="2" fill="#E6F1FB" stroke="#4A90C4"/>
<rect x="498" y="132" width="15" height="14" rx="2" fill="#EAF6EE" stroke="#1F8A4C"/>
<text x="279" y="142" font-size="9.5" text-anchor="middle" fill="#0C447C">exon</text>
<line x1="60" y1="146" x2="60" y2="154" stroke="#6B6862" stroke-width="1.2"/>
<text x="60" y="166" font-size="9.5" text-anchor="middle" fill="#6B6862">45,931,220</text>
<text x="505" y="166" font-size="8.5" text-anchor="middle" fill="#1F8A4C">5 bp match here</text>

<!-- decision -->
<rect x="60" y="182" width="602" height="40" rx="4" fill="#FAFAF8" stroke="#E0DED9"/>
<text x="74" y="199" font-size="10.5" fill="#6B6862">head-to-head bwa-mem score: <tspan fill="#333333">anchor on the far exon</tspan>  vs  <tspan fill="#1F8A4C">whole tail walked contiguously</tspan></text>
<text x="74" y="214" font-size="10.5" fill="#6B6862">the score-maximising prefix is reclaimed as M; here the contiguous walk wins, so the anchor and N are dropped</text>

<!-- arrow -->
<line x1="100" y1="230" x2="100" y2="258" stroke="#9B9893" stroke-width="1.4" marker-end="url(#arrK)"/>
<text x="114" y="247" font-size="11" fill="#6B6862">collapse</text>

<!-- AFTER -->
<text x="60" y="284" font-size="14" font-weight="600" fill="#0C447C">after &#183; collapsed</text>
<rect x="60" y="298" width="438" height="20" rx="3" fill="#2F7DC6"/>
<rect x="498" y="298" width="15" height="20" rx="3" fill="#3F9A5E"/>
<text x="279" y="312" font-size="11" text-anchor="middle" fill="#FFFFFF">151M</text>
<rect x="560" y="296" width="62" height="22" rx="11" fill="#E3F2E8" stroke="#1F8A4C"/>
<text x="591" y="311" font-size="11" text-anchor="middle" fill="#166534">MAPQ 60</text>
<text x="60" y="338" font-size="10" fill="#6B6862">CIGAR-only pass &#183; MAPQ (here 0 &#8594; 60) is the discriminator's, not collapse's. A real short junction is kept.</text>

<text x="360" y="368" font-size="15" font-weight="600" text-anchor="middle" fill="#111111">Step 1 &#183; terminal micro-junction collapse</text>
</svg>
