<svg viewBox="0 0 880 380" xmlns="http://www.w3.org/2000/svg" font-family="Arial, Helvetica, sans-serif">
<title>Step 0: translate the transcript CIGAR to genome</title>
<desc>A read aligned flat (151M) across two exons packed adjacent on a transcript contig is walked through the exon boundary; an N is inserted at the boundary the read crosses, producing a spliced genomic CIGAR 90M 5000N 61M.</desc>
<defs>
<marker id="arrT" markerWidth="9" markerHeight="9" refX="6" refY="3" orient="auto"><path d="M0,0 L6,3 L0,6 Z" fill="#9B9893"/></marker>
</defs>
<rect x="0" y="0" width="880" height="380" fill="#FFFFFF"/>

<!-- legend -->
<g transform="translate(160,0)">
<rect x="556" y="20" width="148" height="74" rx="4" fill="#FCFCFB" stroke="#E4E2DD"/>
<rect x="566" y="32" width="20" height="11" rx="2" fill="#2F7DC6"/>
<text x="592" y="41" font-size="10" fill="#5C5953">matched (M)</text>
<rect x="566" y="48" width="20" height="11" rx="2" fill="#E6F1FB" stroke="#4A90C4"/>
<text x="592" y="57" font-size="10" fill="#5C5953">exon (genome)</text>
<line x1="566" y1="75" x2="586" y2="75" stroke="#2F7DC6" stroke-width="2"/>
<text x="592" y="78" font-size="10" fill="#5C5953">intron (N)</text>
</g>

<!-- BEFORE: transcript contig, exons packed adjacent -->
<text x="60" y="36" font-size="14" font-weight="600" fill="#0C447C">before &#183; aligned flat on a transcript contig (chrN_ENST..._tx)</text>
<rect x="60" y="50" width="207" height="13" fill="#E6F1FB" stroke="#4A90C4"/>
<rect x="267" y="50" width="140" height="13" fill="#E6F1FB" stroke="#4A90C4"/>
<text x="163" y="60" font-size="9.5" text-anchor="middle" fill="#0C447C">exon A</text>
<text x="337" y="60" font-size="9.5" text-anchor="middle" fill="#0C447C">exon B</text>
<text x="233" y="46" font-size="9" fill="#6B6862">exons stored adjacent, no intron between them</text>
<rect x="60" y="68" width="347" height="20" rx="3" fill="#2F7DC6"/>
<text x="233" y="82" font-size="11" text-anchor="middle" fill="#FFFFFF">151M</text>
<line x1="267" y1="64" x2="267" y2="92" stroke="#C0392B" stroke-width="1.6" stroke-dasharray="3,2"/>
<text x="267" y="104" font-size="9.5" text-anchor="middle" fill="#C0392B">exon boundary the read crosses</text>

<!-- arrow -->
<line x1="120" y1="116" x2="120" y2="150" stroke="#9B9893" stroke-width="1.4" marker-end="url(#arrT)"/>
<text x="134" y="138" font-size="11" fill="#6B6862">translate: insert an N at the exon boundary the read crosses</text>

<!-- REFERENCE GENOME track -->
<text x="60" y="178" font-size="11" font-weight="600" fill="#6B6862">reference genome &#183; chr8</text>
<rect x="60" y="186" width="207" height="14" rx="2" fill="#E6F1FB" stroke="#4A90C4"/>
<rect x="397" y="186" width="140" height="14" rx="2" fill="#E6F1FB" stroke="#4A90C4"/>
<line x1="267" y1="193" x2="397" y2="193" stroke="#B8B5AE" stroke-width="1.6"/>
<text x="163" y="196" font-size="9.5" text-anchor="middle" fill="#0C447C">exon A</text>
<text x="467" y="196" font-size="9.5" text-anchor="middle" fill="#0C447C">exon B</text>
<line x1="60" y1="200" x2="60" y2="209" stroke="#6B6862" stroke-width="1.3"/>
<text x="60" y="222" font-size="10" text-anchor="middle" fill="#6B6862">128,750,000</text>
<text x="332" y="183" font-size="9.5" text-anchor="middle" fill="#9B9893">&#8776; 5 kb intron (not to scale)</text>
<line x1="397" y1="200" x2="397" y2="209" stroke="#6B6862" stroke-width="1.3"/>
<text x="397" y="222" font-size="10" text-anchor="middle" fill="#6B6862">128,755,000</text>

<!-- AFTER: spliced genomic read -->
<text x="60" y="258" font-size="14" font-weight="600" fill="#0C447C">after &#183; spliced genomic CIGAR</text>
<rect x="60" y="272" width="207" height="20" rx="3" fill="#2F7DC6"/>
<text x="163" y="286" font-size="11" text-anchor="middle" fill="#FFFFFF">90M</text>
<line x1="267" y1="282" x2="310" y2="282" stroke="#2F7DC6" stroke-width="2"/>
<line x1="354" y1="282" x2="397" y2="282" stroke="#2F7DC6" stroke-width="2"/>
<text x="332" y="286" font-size="11" text-anchor="middle" fill="#0C447C">5000N</text>
<rect x="397" y="272" width="140" height="20" rx="3" fill="#2F7DC6"/>
<text x="467" y="286" font-size="11" text-anchor="middle" fill="#FFFFFF">61M</text>
<text x="60" y="318" font-size="10.5" fill="#6B6862">the 90 bases before the boundary stay in exon A; the 61 after land in exon B, with the intron carried as N</text>
<text x="60" y="334" font-size="9.5" fill="#9B9893">CIGAR transform only &#183; MAPQ is set later (discriminator / rescue). A read inside one exon crosses no boundary and lifts unchanged.</text>

<text x="360" y="364" font-size="15" font-weight="600" text-anchor="middle" fill="#111111">Step 0 &#183; translate the transcript CIGAR to genome</text>
</svg>
