<svg viewBox="0 0 880 372" xmlns="http://www.w3.org/2000/svg" font-family="Arial, Helvetica, sans-serif">
<title>Step 0: translate the transcript CIGAR to genome</title>
<desc>A read aligns to the transcriptome as 151M, where two exons are packed adjacent; it is walked through the exon boundary and an N is inserted where the read crosses it, giving the spliced genomic CIGAR 90M 5000N 61M. CIGAR transform only.</desc>
<defs>
<marker id="arrT" markerWidth="9" markerHeight="9" refX="6" refY="3" orient="auto"><path d="M0,0 L6,3 L0,6 Z" fill="#9B9893"/></marker>
</defs>
<rect x="0" y="0" width="880" height="372" fill="#FFFFFF"/>

<!-- legend -->
<g transform="translate(160,0)">
<rect x="556" y="18" width="148" height="74" rx="4" fill="#FCFCFB" stroke="#E4E2DD"/>
<rect x="566" y="30" width="20" height="11" rx="2" fill="#2F7DC6"/>
<text x="592" y="39" font-size="10" fill="#5C5953">matched (M)</text>
<rect x="566" y="46" width="20" height="11" rx="2" fill="#E6F1FB" stroke="#4A90C4"/>
<text x="592" y="55" font-size="10" fill="#5C5953">exon (genome)</text>
<line x1="566" y1="73" x2="586" y2="73" stroke="#2F7DC6" stroke-width="2"/>
<text x="592" y="76" font-size="10" fill="#5C5953">intron (N)</text>
</g>

<!-- BEFORE: read aligned to the transcriptome, exons packed adjacent -->
<text x="60" y="34" font-size="14" font-weight="600" fill="#0C447C">before  &#183;  read aligns to the transcriptome</text>
<rect x="60" y="50" width="207" height="13" fill="#E6F1FB" stroke="#4A90C4"/>
<rect x="267" y="50" width="140" height="13" fill="#E6F1FB" stroke="#4A90C4"/>
<text x="163" y="60" font-size="9.5" text-anchor="middle" fill="#0C447C">exon A</text>
<text x="337" y="60" font-size="9.5" text-anchor="middle" fill="#0C447C">exon B</text>
<rect x="60" y="68" width="347" height="20" rx="3" fill="#2F7DC6"/>
<text x="233" y="82" font-size="11" text-anchor="middle" fill="#FFFFFF">151M</text>
<line x1="267" y1="64" x2="267" y2="92" stroke="#C0392B" stroke-width="1.6" stroke-dasharray="3,2"/>
<text x="267" y="104" font-size="9.5" text-anchor="middle" fill="#C0392B">exon boundary the read crosses</text>

<!-- arrow -->
<line x1="120" y1="116" x2="120" y2="150" stroke="#9B9893" stroke-width="1.4" marker-end="url(#arrT)"/>
<text x="134" y="138" font-size="11" fill="#6B6862">insert N at the boundary; matched bases stay M</text>

<!-- REFERENCE GENOME track -->
<text x="60" y="170" font-size="11" font-weight="600" fill="#6B6862">reference genome  &#183;  chr8</text>
<rect x="60" y="184" width="207" height="14" rx="2" fill="#E6F1FB" stroke="#4A90C4"/>
<rect x="397" y="184" width="140" height="14" rx="2" fill="#E6F1FB" stroke="#4A90C4"/>
<line x1="267" y1="191" x2="397" y2="191" stroke="#B8B5AE" stroke-width="1.6"/>
<text x="163" y="194" font-size="9.5" text-anchor="middle" fill="#0C447C">exon A</text>
<text x="467" y="194" font-size="9.5" text-anchor="middle" fill="#0C447C">exon B</text>
<text x="332" y="186" font-size="9" text-anchor="middle" fill="#9B9893">5,000 bp intron (not to scale)</text>
<line x1="60" y1="198" x2="60" y2="207" stroke="#6B6862" stroke-width="1.3"/>
<text x="85" y="220" font-size="10" text-anchor="middle" fill="#6B6862">128,750,000</text>
<line x1="397" y1="198" x2="397" y2="207" stroke="#6B6862" stroke-width="1.3"/>
<text x="422" y="220" font-size="10" text-anchor="middle" fill="#6B6862">128,755,090</text>

<!-- AFTER: spliced genomic read -->
<text x="60" y="256" font-size="14" font-weight="600" fill="#0C447C">after  &#183;  spliced genomic read</text>
<rect x="60" y="270" width="207" height="20" rx="3" fill="#2F7DC6"/>
<text x="163" y="284" font-size="11" text-anchor="middle" fill="#FFFFFF">90M</text>
<line x1="267" y1="280" x2="310" y2="280" stroke="#2F7DC6" stroke-width="2"/>
<line x1="354" y1="280" x2="397" y2="280" stroke="#2F7DC6" stroke-width="2"/>
<text x="332" y="284" font-size="11" text-anchor="middle" fill="#0C447C">5000N</text>
<rect x="397" y="270" width="140" height="20" rx="3" fill="#2F7DC6"/>
<text x="467" y="284" font-size="11" text-anchor="middle" fill="#FFFFFF">61M</text>
<text x="60" y="305" font-size="9.5" fill="#9B9893">only CIGAR and pos is translated; MAPQ is set later</text>
</svg>
